<svg width="39" height="39" viewBox="0 0 39 39" fill="none" xmlns="http://www.w3.org/2000/svg">
<mask id="mask0_371_1829" style="mask-type:luminance" maskUnits="userSpaceOnUse" x="0" y="0" width="39" height="39">
<path d="M19.3306 0L38.6611 19.3305L19.3306 38.6611L3.67248e-05 19.3305L19.3306 0Z" fill="white"/>
</mask>
<g mask="url(#mask0_371_1829)">
<g opacity="0.01">
<path d="M10.6766 27.9844C10.4789 27.7867 10.4789 27.4662 10.6766 27.2685C10.8743 27.0708 11.1948 27.0708 11.3925 27.2685C11.5902 27.4662 11.5902 27.7867 11.3925 27.9844C11.1948 28.1821 10.8743 28.1821 10.6766 27.9844Z" fill="#48D5C6"/>
</g>
<g opacity="0.01">
<path d="M27.9849 27.9846C27.7872 28.1823 27.4667 28.1823 27.269 27.9846C27.0713 27.7869 27.0713 27.4663 27.269 27.2686C27.4667 27.0709 27.7872 27.0709 27.9849 27.2686C28.1826 27.4663 28.1826 27.7869 27.9849 27.9846Z" fill="#4CC9F0"/>
</g>
<g opacity="0.01">
<path d="M28.343 10.3183C28.5407 10.516 28.5407 10.8365 28.343 11.0342C28.1453 11.232 27.8247 11.232 27.627 11.0342C27.4293 10.8365 27.4293 10.516 27.627 10.3183C27.8247 10.1206 28.1453 10.1206 28.343 10.3183Z" fill="#B190FF"/>
</g>
<g opacity="0.01">
<path d="M27.9849 27.9846C27.7872 28.1823 27.4667 28.1823 27.269 27.9846C27.0713 27.7869 27.0713 27.4663 27.269 27.2686C27.4667 27.0709 27.7872 27.0709 27.9849 27.2686C28.1826 27.4663 28.1826 27.7869 27.9849 27.9846Z" fill="#0074E8"/>
</g>
<g opacity="0.01">
<path d="M10.6757 10.6771C10.8734 10.4793 11.194 10.4793 11.3917 10.6771C11.5894 10.8748 11.5894 11.1953 11.3917 11.393C11.194 11.5907 10.8734 11.5907 10.6757 11.393C10.478 11.1953 10.478 10.8748 10.6757 10.6771Z" fill="#EE376A"/>
</g>
</g>
<mask id="mask1_371_1829" style="mask-type:luminance" maskUnits="userSpaceOnUse" x="5" y="5" width="28" height="28">
<path d="M5.66064 5.66113H32.9981V32.9986H5.66064V5.66113Z" fill="white"/>
</mask>
<g mask="url(#mask1_371_1829)">
<g opacity="0.01">
<path d="M19.3292 31.5687C19.0496 31.5687 18.8229 31.342 18.8229 31.0624C18.8229 30.7828 19.0496 30.5562 19.3292 30.5562C19.6088 30.5562 19.8354 30.7828 19.8354 31.0624C19.8354 31.342 19.6088 31.5687 19.3292 31.5687Z" fill="#48D5C6"/>
</g>
<g opacity="0.01">
<path d="M31.5687 19.33C31.5687 19.6096 31.342 19.8362 31.0624 19.8362C30.7828 19.8362 30.5562 19.6096 30.5562 19.33C30.5562 19.0504 30.7828 18.8237 31.0624 18.8237C31.342 18.8237 31.5687 19.0504 31.5687 19.33Z" fill="#4CC9F0"/>
</g>
<g opacity="0.01">
<path d="M19.33 6.58516C19.6096 6.58516 19.8362 6.8118 19.8362 7.09141C19.8362 7.37101 19.6096 7.59766 19.33 7.59766C19.0504 7.59766 18.8237 7.37101 18.8237 7.09141C18.8237 6.8118 19.0504 6.58516 19.33 6.58516Z" fill="#B190FF"/>
</g>
<g opacity="0.01">
<path d="M31.5687 19.33C31.5687 19.6096 31.342 19.8362 31.0624 19.8362C30.7828 19.8362 30.5562 19.6096 30.5562 19.33C30.5562 19.0504 30.7828 18.8237 31.0624 18.8237C31.342 18.8237 31.5687 19.0504 31.5687 19.33Z" fill="#0074E8"/>
</g>
<g opacity="0.01">
<path d="M7.0915 19.3302C7.0915 19.0506 7.31815 18.8239 7.59775 18.8239C7.87736 18.8239 8.104 19.0506 8.104 19.3302C8.104 19.6098 7.87736 19.8364 7.59775 19.8364C7.31815 19.8364 7.0915 19.6098 7.0915 19.3302Z" fill="#EE376A"/>
</g>
</g>
<path d="M19.9095 15.2187C20.1553 15.5229 20.5574 15.6535 20.9351 15.552C21.543 15.3885 22.1468 15.8272 22.1792 16.4559C22.1993 16.8464 22.4478 17.1885 22.813 17.3283C23.4009 17.5534 23.6315 18.2632 23.2882 18.7908C23.0749 19.1187 23.0749 19.5414 23.2882 19.8692C23.6315 20.3969 23.4009 21.1067 22.813 21.3318C22.4478 21.4716 22.1993 21.8136 22.1792 22.2042C22.1468 22.8328 21.543 23.2716 20.9351 23.1081C20.5574 23.0066 20.1553 23.1372 19.9095 23.4414C19.5138 23.9309 18.7674 23.9309 18.3717 23.4414C18.1258 23.1372 17.7237 23.0066 17.346 23.1081C16.7381 23.2716 16.1343 22.8328 16.1019 22.2042C16.0818 21.8136 15.8333 21.4716 15.4681 21.3318C14.8802 21.1067 14.6496 20.3969 14.9929 19.8692C15.2062 19.5414 15.2062 19.1187 14.9929 18.7908C14.6496 18.2632 14.8802 17.5534 15.4681 17.3283C15.8333 17.1885 16.0818 16.8464 16.1019 16.4559C16.1343 15.8272 16.7381 15.3885 17.346 15.552C17.7237 15.6535 18.1258 15.5229 18.3717 15.2187C18.7674 14.7292 19.5138 14.7292 19.9095 15.2187Z" fill="#60781C"/>
<mask id="mask2_371_1829" style="mask-type:alpha" maskUnits="userSpaceOnUse" x="17" y="17" width="4" height="4">
<path d="M18.5818 20.6701L17.3859 19.4742C17.303 19.3913 17.303 19.2569 17.3859 19.174C17.4688 19.0911 17.6032 19.0911 17.6861 19.174L18.5818 20.0697L20.5991 18.0524C20.682 17.9695 20.8164 17.9695 20.8993 18.0524C20.9822 18.1353 20.9822 18.2697 20.8993 18.3527L18.5818 20.6701Z" fill="#ECEADE"/>
</mask>
<g mask="url(#mask2_371_1829)">
<path d="M17.2563 19.0514L18.5979 20.393L20.9899 18.001" stroke="white" stroke-width="0.50625" stroke-linecap="round"/>
</g>
</svg>
