<svg width="181" height="220" viewBox="0 0 181 220" fill="none" xmlns="http://www.w3.org/2000/svg">
<g filter="url(#filter0_d_238_904)">
<path d="M6 132V203C6.3595 208.417 8.34494 210.178 14.75 211.25H161.25C170.197 211.468 172.382 209.236 172.75 203V155.5C140.645 168.777 122.633 165.44 90.5 152.25C58.8264 136.085 40.2704 131.991 6 132Z" fill="#F19079"/>
</g>
<g filter="url(#filter1_d_238_904)">
<path d="M95.0269 61.0414C92.4633 93.2718 93.072 111.337 97.2769 143.541C128.143 153.828 144.989 154.189 174.277 146.041V93.0414C174.533 88.026 173.478 85.5164 166.777 81.7914L104.277 56.5414C97.9239 54.548 95.6897 55.0923 95.0269 61.0414Z" fill="#FCDAB7"/>
</g>
<g filter="url(#filter2_d_238_904)">
<path d="M13.2749 83.8841C3.9642 88.4783 6.80031 104.03 7.27488 124.384C34.1944 121.171 79.5993 138.943 77.775 136.134C75.9507 133.325 79.5249 67.6341 79.5249 67.6341C79.6972 61.9214 80.4644 58.2128 69.5249 60.8841L13.2749 83.8841Z" fill="#FCDAB7"/>
</g>
<g filter="url(#filter3_d_238_904)">
<path d="M91.7501 136.75C87.8262 142.42 85.7024 142.359 82.0001 136.75C79.4446 103.739 81.1216 85.0093 85.5001 51.25C88.2914 38.2683 89.2705 33.4608 89.524 32.1654C89.516 32.1936 89.5081 32.2218 89.5001 32.25C89.5976 31.7413 89.6487 31.5275 89.524 32.1654C93.4083 18.3826 97.09 11.6269 104.25 0C97.3412 19.7116 94.4475 30.9106 91.7501 51.25C87.7487 84.2081 87.8749 102.946 91.7501 136.75Z" fill="#60781C"/>
</g>
<circle cx="55.85" cy="155.35" r="3.85" fill="#FCDAB7"/>
<circle cx="27.35" cy="171.85" r="3.85" fill="#FCDAB7"/>
<circle cx="89.35" cy="179.85" r="3.85" fill="#FCDAB7"/>
<circle cx="49.475" cy="188.975" r="2.475" fill="#FCDAB7"/>
<circle cx="118.975" cy="175.975" r="2.475" fill="#FCDAB7"/>
<circle cx="156.975" cy="170.475" r="2.475" fill="#FCDAB7"/>
<circle cx="137.85" cy="190.35" r="3.85" fill="#FCDAB7"/>
<defs>
<filter id="filter0_d_238_904" x="2" y="132" width="174.75" height="87.2646" filterUnits="userSpaceOnUse" color-interpolation-filters="sRGB">
<feFlood flood-opacity="0" result="BackgroundImageFix"/>
<feColorMatrix in="SourceAlpha" type="matrix" values="0 0 0 0 0 0 0 0 0 0 0 0 0 0 0 0 0 0 127 0" result="hardAlpha"/>
<feOffset dy="4"/>
<feGaussianBlur stdDeviation="2"/>
<feComposite in2="hardAlpha" operator="out"/>
<feColorMatrix type="matrix" values="0 0 0 0 0 0 0 0 0 0 0 0 0 0 0 0 0 0 0.25 0"/>
<feBlend mode="normal" in2="BackgroundImageFix" result="effect1_dropShadow_238_904"/>
<feBlend mode="normal" in="SourceGraphic" in2="effect1_dropShadow_238_904" result="shape"/>
</filter>
<filter id="filter1_d_238_904" x="91.5" y="55.5" width="88.8115" height="104.246" filterUnits="userSpaceOnUse" color-interpolation-filters="sRGB">
<feFlood flood-opacity="0" result="BackgroundImageFix"/>
<feColorMatrix in="SourceAlpha" type="matrix" values="0 0 0 0 0 0 0 0 0 0 0 0 0 0 0 0 0 0 127 0" result="hardAlpha"/>
<feOffset dx="2" dy="4"/>
<feGaussianBlur stdDeviation="2"/>
<feComposite in2="hardAlpha" operator="out"/>
<feColorMatrix type="matrix" values="0 0 0 0 0 0 0 0 0 0 0 0 0 0 0 0 0 0 0.25 0"/>
<feBlend mode="normal" in2="BackgroundImageFix" result="effect1_dropShadow_238_904"/>
<feBlend mode="normal" in="SourceGraphic" in2="effect1_dropShadow_238_904" result="shape"/>
</filter>
<filter id="filter2_d_238_904" x="0.5" y="60" width="81.1045" height="84.4365" filterUnits="userSpaceOnUse" color-interpolation-filters="sRGB">
<feFlood flood-opacity="0" result="BackgroundImageFix"/>
<feColorMatrix in="SourceAlpha" type="matrix" values="0 0 0 0 0 0 0 0 0 0 0 0 0 0 0 0 0 0 127 0" result="hardAlpha"/>
<feOffset dx="-2" dy="4"/>
<feGaussianBlur stdDeviation="2"/>
<feComposite in2="hardAlpha" operator="out"/>
<feColorMatrix type="matrix" values="0 0 0 0 0 0 0 0 0 0 0 0 0 0 0 0 0 0 0.25 0"/>
<feBlend mode="normal" in2="BackgroundImageFix" result="effect1_dropShadow_238_904"/>
<feBlend mode="normal" in="SourceGraphic" in2="effect1_dropShadow_238_904" result="shape"/>
</filter>
<filter id="filter3_d_238_904" x="80.7969" y="0" width="31.4531" height="148.979" filterUnits="userSpaceOnUse" color-interpolation-filters="sRGB">
<feFlood flood-opacity="0" result="BackgroundImageFix"/>
<feColorMatrix in="SourceAlpha" type="matrix" values="0 0 0 0 0 0 0 0 0 0 0 0 0 0 0 0 0 0 127 0" result="hardAlpha"/>
<feOffset dx="4" dy="4"/>
<feGaussianBlur stdDeviation="2"/>
<feComposite in2="hardAlpha" operator="out"/>
<feColorMatrix type="matrix" values="0 0 0 0 0 0 0 0 0 0 0 0 0 0 0 0 0 0 0.25 0"/>
<feBlend mode="normal" in2="BackgroundImageFix" result="effect1_dropShadow_238_904"/>
<feBlend mode="normal" in="SourceGraphic" in2="effect1_dropShadow_238_904" result="shape"/>
</filter>
</defs>
</svg>
